# xmcd
#
# Track frame offsets:
#	150
#	15110
#	30490
#	41685
#	52177
#	63845
#	81585
#	93847
#	111650
#	123247
#	138090
#	149232
#	159502
#	171180
#	183917
#
# Disc length: 2578 seconds
#
# Revision: 0
# Processed by: cddbd v1.5.2PL0 Copyright (c) Steve Scherf et al.
# Submitted via: dBpowerAMP V4.0
#
DISCID=cb0a100f
DTITLE=The Stingers - Dark Karma
DYEAR=1999
DGENRE=Rock and Roll
TTITLE0=Only A Good Love
TTITLE1=Was It Me?
TTITLE2=Too Tough
TTITLE3=She's My Witch
TTITLE4=Wrong Place, Wrong Time
TTITLE5=Mighty Love
TTITLE6=Hangin' On
TTITLE7=So Hard Livin'
TTITLE8=Shootin' Star
TTITLE9=End Of Life
TTITLE10=Ride, Vaquero!
TTITLE11=Lady Madonna
TTITLE12=Devil's Train
TTITLE13=Can't Get It Right
TTITLE14=Lay Down and Die
EXTD=
EXTT0=
EXTT1=
EXTT2=
EXTT3=
EXTT4=
EXTT5=
EXTT6=
EXTT7=
EXTT8=
EXTT9=
EXTT10=
EXTT11=
EXTT12=
EXTT13=
EXTT14=
PLAYORDER=
